<svg id="Calque_1" data-name="Calque 1" xmlns="http://www.w3.org/2000/svg" viewBox="0 0 599.06 168.99"><defs><style>.cls-1{fill:#77bd75;}.cls-2{fill:#82c17b;}.cls-3{fill:#6dab6a;}.cls-4{fill:#aad29c;}.cls-5{fill:#61b669;}.cls-6{fill:#88c381;}.cls-7{fill:#58a05b;}.cls-8{fill:#97c989;}.cls-9{fill:#e2c703;}.cls-10{fill:#f2d10b;}.cls-11{fill:#baa00a;}.cls-12{fill:#a5cf94;}.cls-13{fill:#444;}</style></defs><title>Plan de travail 1</title><polygon class="cls-1" points="115.19 84.65 121.03 84.65 118.79 80.95 113.92 80.85 115.19 84.65"/><polygon class="cls-2" points="115.19 84.65 115.19 87.96 118.79 87.96 121.03 84.65 115.19 84.65"/><polygon class="cls-3" points="69.09 145.74 74.99 164.55 86.76 166.24 82.57 162.06 78.29 145.74 74.99 144.34 68.02 142.41 69.09 145.74"/><polygon class="cls-4" points="105.17 51.06 97.57 51.59 71.42 92.39 83.18 92.39 105.17 51.06"/><polygon class="cls-1" points="64.09 91.39 90.1 51.69 97.57 51.59 71.42 92.39 64.09 91.39"/><polygon class="cls-4" points="57.6 91.07 84.49 51.59 90.1 51.69 64.09 91.39 57.6 91.07"/><polygon class="cls-4" points="22.23 0 84.49 51.59 90.1 51.69 22.23 0"/><polygon class="cls-1" points="31.08 33.99 22.23 0 84.49 51.59 31.08 33.99"/><polygon class="cls-5" points="42.25 91.39 11.33 92.39 84.49 51.59 42.25 91.39"/><polygon class="cls-6" points="57.6 91.07 42.25 91.39 84.49 51.59 57.6 91.07"/><polygon class="cls-2" points="82.14 168.11 88.3 168.99 91.53 160.12 82.57 162.06 82.14 168.11"/><polygon class="cls-1" points="91.53 160.12 99.03 168 88.3 168.99 91.53 160.12"/><polygon class="cls-2" points="106.33 160.12 108.67 167.52 115.87 166.93 106.33 160.12"/><polygon class="cls-2" points="92.89 160.12 106.33 160.12 108.67 167.52 99.03 168 92.89 160.12"/><polygon class="cls-1" points="93.67 143.76 92.89 160.12 106.33 160.12 108.67 143.27 93.67 143.76"/><polygon class="cls-2" points="120.16 122.24 108.67 143.27 93.67 143.76 100.78 122.24 120.16 122.24"/><polygon class="cls-1" points="98.54 89.32 100.78 122.24 120.16 122.24 106.91 89.62 98.54 89.32"/><polygon class="cls-7" points="114.02 87.96 98.54 89.32 106.91 89.62 118.79 87.96 114.02 87.96"/><polygon class="cls-6" points="90.56 89.32 98.54 89.32 100.78 122.24 86.76 122.24 90.56 89.32"/><polygon class="cls-8" points="86.76 122.24 93.67 143.76 100.78 122.24 86.76 122.24"/><polygon class="cls-6" points="90.85 77.44 96.5 73.65 113.92 80.85 115.19 84.65 90.85 77.44"/><polygon class="cls-5" points="96.5 73.65 106.53 73.65 118.79 80.95 113.92 80.85 96.5 73.65"/><polygon class="cls-8" points="90.85 77.44 115.19 84.65 115.19 87.96 98.54 89.32 90.56 89.32 90.85 77.44"/><polygon class="cls-9" points="96.5 73.65 62.7 64.3 90.85 77.44 96.5 73.65"/><polygon class="cls-10" points="96.5 73.65 97.18 72.57 62.7 64.3 96.5 73.65"/><polygon class="cls-1" points="104.38 73.65 102.24 72.87 97.18 72.57 96.5 73.65 104.38 73.65"/><polygon class="cls-9" points="102.24 72.87 95.62 68.97 94.84 70.48 97.18 72.57 102.24 72.87"/><polygon class="cls-10" points="104.38 73.65 106.53 73.65 96.5 67.32 95.62 68.97 102.24 72.87 104.38 73.65"/><polygon class="cls-11" points="62.7 64.3 89.19 77.44 90.85 77.44 62.7 64.3"/><polygon class="cls-8" points="90.85 77.44 85.2 85.62 90.85 85.23 90.85 77.44"/><polygon class="cls-1" points="78.29 145.74 82.57 162.06 91.53 160.12 93.67 143.76 78.29 145.74"/><polygon class="cls-8" points="79 127.49 86.76 122.24 93.67 143.76 78.29 145.74 79 127.49"/><polygon class="cls-8" points="90.85 85.23 83.83 99.55 91.33 97.02 90.85 85.23"/><polygon class="cls-8" points="77.35 122.24 79 127.49 86.76 122.24 82.05 118 77.35 122.24"/><polygon class="cls-2" points="81.11 113.01 87.87 112.58 86.76 122.24 82.05 118 81.11 113.01"/><polygon class="cls-4" points="57.6 91.07 64.09 91.39 81.11 113.01 82.05 118 77.35 122.24 57.6 91.07"/><polygon class="cls-2" points="71.42 92.39 88.41 107.93 87.87 112.58 81.11 113.01 64.09 91.39 71.42 92.39"/><polygon class="cls-8" points="83.18 92.39 71.42 92.39 88.41 107.93 89.38 99.55 83.18 92.39"/><polygon class="cls-1" points="42.41 4.75 43.51 16.2 90.1 51.69 97.57 51.59 42.41 4.75"/><polygon class="cls-4" points="105.17 51.06 97.57 51.59 42.41 4.75 105.17 51.06"/><polygon class="cls-6" points="0 63.12 84.49 51.59 31.08 33.99 0 63.12"/><polygon class="cls-5" points="23.2 71.49 0 63.12 84.49 51.59 23.2 71.49"/><polygon class="cls-6" points="11.33 92.39 84.49 51.59 23.2 71.49 11.33 92.39"/><polygon class="cls-2" points="57.6 91.07 42.25 91.39 61.4 116.55 62.01 120.4 66.09 122.74 77.35 122.24 57.6 91.07"/><polygon class="cls-8" points="61.4 116.55 57.19 122.24 47.33 126.06 61.4 116.55"/><polygon class="cls-2" points="57.19 122.24 55.15 139.89 47.33 126.06 57.19 122.24"/><polygon class="cls-8" points="57.19 122.24 66.09 122.74 55.15 139.89 57.19 122.24"/><polygon class="cls-1" points="47.33 126.06 55.15 139.89 37.47 154.08 33.74 144.34 47.33 126.06"/><polygon class="cls-2" points="33.74 144.34 29.13 158.1 33.14 164.55 33.74 144.34"/><polygon class="cls-8" points="33.74 144.34 37.47 154.08 45.53 161.41 40.96 167.52 33.14 164.55 33.74 144.34"/><polygon class="cls-8" points="45.53 161.41 73.79 167.52 40.96 167.52 45.53 161.41"/><polygon class="cls-12" points="55.15 139.89 68.02 142.41 66.09 122.74 55.15 139.89"/><polygon class="cls-1" points="55.15 139.89 54.37 160.12 62.37 159.13 68.02 142.41 55.15 139.89"/><polygon class="cls-1" points="62.37 159.13 66.09 164.06 69.27 166.64 54.37 163.32 54.37 160.12 62.37 159.13"/><polygon class="cls-5" points="61.4 116.55 62.01 120.4 66.09 122.74 57.19 122.24 61.4 116.55"/><polygon class="cls-8" points="68.02 142.41 74.99 144.34 77.35 122.24 66.09 122.74 68.02 142.41"/><polygon class="cls-2" points="74.99 144.34 78.29 145.74 79 127.49 77.35 122.24 74.99 144.34"/><polygon class="cls-12" points="54.73 153.84 45.53 161.41 37.47 154.08 55.15 139.89 54.73 153.84"/><polygon class="cls-1" points="74.99 164.55 82.57 162.06 82.32 165.6 74.99 164.55"/><path class="cls-13" d="M195.85,142.35v1.85a24.82,24.82,0,1,1-7.34-17.59l-9.19,9.13a11.84,11.84,0,0,0-8.27-3.31,11.77,11.77,0,1,0,9.59,18.64h-9.59v-8.72Z"/><path class="cls-13" d="M203,119.41H233.8v10.77H216v8.07h15.74v11H216v9.13H233.8V169H203Z"/><path class="cls-13" d="M271.88,169l-7.67-13.16h-8.07V169h-13V119.41H264A18.2,18.2,0,0,1,276.37,151l10.51,18Zm-15.74-24.4h8.07a7.11,7.11,0,1,0,0-14.21h-8.07Z"/><path class="cls-13" d="M291.31,169l23.14-49.58h5.89L343.68,169h-13l-3-6.48h-20.3l-3,6.48Zm21.09-17.45h10.12l-5-10.91Z"/><path class="cls-13" d="M379.05,169l-7.67-13.16h-8.07V169h-13V119.41h20.89A18.2,18.2,0,0,1,383.54,151l10.51,18Zm-15.74-24.4h8.07a7.11,7.11,0,1,0,0-14.21h-8.07Z"/><path class="cls-13" d="M400.47,119.41h18.38a24.79,24.79,0,0,1,0,49.58H400.47Zm13,36.62h5.48a11.74,11.74,0,1,0,0-23.47h-5.48Z"/><path class="cls-13" d="M478.74,137.78l20.17-18.37h5.88V169H491.7V143.54l-13,11.83-13-11.77V169H452.63V119.41h5.88Z"/><path class="cls-13" d="M514.78,119.41h30.81v10.77H527.8v8.07h15.74v11H527.8v9.13h17.79V169H514.78Z"/><path class="cls-13" d="M583.67,169,576,155.83h-8.07V169h-13V119.41H575.8A18.2,18.2,0,0,1,588.16,151l10.51,18Zm-15.74-24.4H576a7.11,7.11,0,1,0,0-14.21h-8.07Z"/><path class="cls-1" d="M147.47,73.3V85.81h10.07a21.44,21.44,0,0,0,2.65-.11v1a21.44,21.44,0,0,0-2.65-.11H147.47v9.68a23.39,23.39,0,0,0,.1,2.65h-1a23.39,23.39,0,0,0,.1-2.65V75.1a23.57,23.57,0,0,0-.1-2.65,22.41,22.41,0,0,0,2.72.11h9.47a21.36,21.36,0,0,0,2.65-.11v1a21.36,21.36,0,0,0-2.65-.11Z"/><path class="cls-1" d="M180.33,98.14A23.48,23.48,0,0,0,183,98V99a21.36,21.36,0,0,0-2.65-.11h-10a22.58,22.58,0,0,0-2.72.11,21.36,21.36,0,0,0,.11-2.65V75.14a22.25,22.25,0,0,0-.11-2.69,22.58,22.58,0,0,0,2.72.11h9.51a21.36,21.36,0,0,0,2.65-.11v1a21.36,21.36,0,0,0-2.65-.11H168.49v12H178.6a21.44,21.44,0,0,0,2.65-.11v1a21.44,21.44,0,0,0-2.65-.11H168.49v12Z"/><path class="cls-1" d="M188.24,93.87a11.06,11.06,0,0,0,1.81,2.29,9.61,9.61,0,0,0,6.43,2.26c4.41,0,7.21-2.43,7.21-6.25,0-3.25-1.91-5-7.07-6.43-5.48-1.52-7.56-3.46-7.56-7,0-3.93,3-6.5,7.59-6.5a9.26,9.26,0,0,1,4.21,1,13.15,13.15,0,0,1,3,2.15l-.71.71a8.56,8.56,0,0,0-2.68-2.22,7.94,7.94,0,0,0-3.82-.89c-4.17,0-6.79,2.23-6.79,5.8,0,3.21,1.63,4.66,7.28,6.32,5.37,1.59,7.35,3.47,7.35,7.07,0,4.2-3.21,7-8.05,7a10,10,0,0,1-6.89-2.44,10.41,10.41,0,0,1-2-2.3Z"/><path class="cls-1" d="M224.82,72.56a21.44,21.44,0,0,0,2.65-.11v1a21.44,21.44,0,0,0-2.65-.11h-7.21V96.23a21.28,21.28,0,0,0,.11,2.65h-1a21.28,21.28,0,0,0,.11-2.65V73.3h-7.21a21.28,21.28,0,0,0-2.65.11v-1a21.28,21.28,0,0,0,2.65.11Z"/><path class="cls-1" d="M234,72.56a21.28,21.28,0,0,0-.11,2.65v21a21.28,21.28,0,0,0,.11,2.65h-1a23.39,23.39,0,0,0,.1-2.65v-21a23.39,23.39,0,0,0-.1-2.65Z"/><path class="cls-1" d="M260.83,72.56c-.43.88-.78,1.76-1.13,2.65l-8.27,21a18.34,18.34,0,0,0-.89,2.65h-1.13a22.85,22.85,0,0,0-.88-2.65l-8.27-21a26.74,26.74,0,0,0-1.17-2.65h1.06c.25.88.61,1.76,1,2.65l8,20.46c.28.67.56,1.41.85,2.22.28-.84.56-1.59.81-2.22l8.06-20.46c.35-.89.67-1.77.92-2.65Z"/><path class="cls-1" d="M281.18,96.23c.32.89.71,1.77,1.13,2.65h-1.13a19.84,19.84,0,0,0-.85-2.65l-2.93-7.84H266.09l-2.93,7.84a25.4,25.4,0,0,0-.85,2.65h-1.13c.42-.88.81-1.76,1.13-2.65l7.88-21a26.08,26.08,0,0,0,.92-2.65h1.27a26.08,26.08,0,0,0,.92,2.65Zm-4.1-8.58-5.33-14.24-5.38,14.24Z"/><path class="cls-1" d="M300.83,98.14a23.57,23.57,0,0,0,2.65-.1V99a21.44,21.44,0,0,0-2.65-.11h-11a22.58,22.58,0,0,0-2.72.11,21.36,21.36,0,0,0,.11-2.65V75.28a21.36,21.36,0,0,0-.11-2.65h1a21.36,21.36,0,0,0-.11,2.65V98.14Z"/><path class="cls-1" d="M318.11,72.56a21.28,21.28,0,0,0-.11,2.65v21a21.28,21.28,0,0,0,.11,2.65h-1a21.28,21.28,0,0,0,.11-2.65v-21a21.28,21.28,0,0,0-.11-2.65Z"/><path class="cls-1" d="M346.52,96.23a23.39,23.39,0,0,0,.1,2.65h-1.13a18.27,18.27,0,0,0-1.62-2.65L329,75.21c-.49-.67-.95-1.34-1.48-2v23a23.39,23.39,0,0,0,.1,2.65h-1a23.39,23.39,0,0,0,.1-2.65v-21a23.39,23.39,0,0,0-.1-2.65h1.55c.53.88,1.13,1.76,1.77,2.65l15.79,22.3V75.21a23.39,23.39,0,0,0-.1-2.65h1a23.39,23.39,0,0,0-.1,2.65Z"/><path class="cls-1" d="M369.63,72.56a21.44,21.44,0,0,0,2.65-.11v1a21.44,21.44,0,0,0-2.65-.11h-7.21V96.23a23.39,23.39,0,0,0,.1,2.65h-1a21.28,21.28,0,0,0,.11-2.65V73.3H354.4a21.28,21.28,0,0,0-2.65.11v-1a21.28,21.28,0,0,0,2.65.11Z"/><path class="cls-1" d="M390.16,98.14a23.57,23.57,0,0,0,2.65-.1V99a21.44,21.44,0,0,0-2.65-.11h-10a22.58,22.58,0,0,0-2.72.11,21.36,21.36,0,0,0,.11-2.65V75.14a22.25,22.25,0,0,0-.11-2.69,22.58,22.58,0,0,0,2.72.11h9.51a21.36,21.36,0,0,0,2.65-.11v1a21.36,21.36,0,0,0-2.65-.11H378.32v12h10.11a21.44,21.44,0,0,0,2.65-.11v1a21.44,21.44,0,0,0-2.65-.11H378.32v12Z"/><path class="cls-1" d="M414.79,96.13a25.18,25.18,0,0,0,1.87,2.75h-1.45a13.47,13.47,0,0,0-1.41-2.75l-6.22-9.79h-7.67v9.89a21.28,21.28,0,0,0,.11,2.65h-1c.07-.88.07-1.76.07-2.65V75.1a18.47,18.47,0,0,0-.11-2.65c.78.07,1.49.11,2.72.11H407c5.12,0,7.95,2.33,7.95,6.61,0,3.78-2,6.29-6.5,7Zm-8.52-10.5c5.13,0,7.85-2.22,7.85-6.43,0-3.89-2.55-5.9-7.28-5.9h-6.93V85.63Z"/><path class="cls-1" d="M442.24,96.23a21.28,21.28,0,0,0,.11,2.65h-1.13a17.5,17.5,0,0,0-1.63-2.65l-14.87-21c-.5-.67-1-1.34-1.49-2v23a21.28,21.28,0,0,0,.11,2.65h-1a21.28,21.28,0,0,0,.11-2.65v-21a21.28,21.28,0,0,0-.11-2.65h1.56c.53.88,1.13,1.76,1.77,2.65l15.79,22.3V75.21a23.39,23.39,0,0,0-.1-2.65h1a21.28,21.28,0,0,0-.11,2.65Z"/><path class="cls-1" d="M466.41,96.23a26.44,26.44,0,0,0,1.14,2.65h-1.14a19.77,19.77,0,0,0-.84-2.65l-2.94-7.84h-11.3l-2.94,7.84c-.32.89-.63,1.77-.85,2.65h-1.13a24.22,24.22,0,0,0,1.13-2.65l7.88-21a26.08,26.08,0,0,0,.92-2.65h1.28c.21.88.6,1.76.91,2.65Zm-4.09-8.58L457,73.41l-5.37,14.24Z"/><path class="cls-1" d="M485.78,72.56a21.36,21.36,0,0,0,2.65-.11v1a21.36,21.36,0,0,0-2.65-.11h-7.21V96.23a21.28,21.28,0,0,0,.11,2.65h-1a21.28,21.28,0,0,0,.11-2.65V73.3h-7.21a21.36,21.36,0,0,0-2.65.11v-1a21.36,21.36,0,0,0,2.65.11Z"/><path class="cls-1" d="M494.93,72.56a23.39,23.39,0,0,0-.1,2.65v21a23.39,23.39,0,0,0,.1,2.65h-1a23.39,23.39,0,0,0,.1-2.65v-21a23.39,23.39,0,0,0-.1-2.65Z"/><path class="cls-1" d="M525.6,85.6c0,8.37-4.55,13.64-11.8,13.64S502,94.11,502,85.84s4.56-13.67,11.8-13.67S525.6,77.29,525.6,85.6Zm-.81,0c0-7.88-4.1-12.69-11-12.69s-11,4.88-11,12.93,4.1,12.65,11,12.65S524.79,93.65,524.79,85.6Z"/><path class="cls-1" d="M552.25,96.23a23.39,23.39,0,0,0,.1,2.65h-1.13a18.27,18.27,0,0,0-1.62-2.65l-14.88-21c-.49-.67-1-1.34-1.48-2v23a23.39,23.39,0,0,0,.1,2.65h-1a23.39,23.39,0,0,0,.1-2.65v-21a23.39,23.39,0,0,0-.1-2.65h1.55c.53.88,1.13,1.76,1.77,2.65l15.79,22.3V75.21a23.39,23.39,0,0,0-.1-2.65h1a23.39,23.39,0,0,0-.1,2.65Z"/><path class="cls-1" d="M576.42,96.23c.32.89.71,1.77,1.13,2.65h-1.13a19.84,19.84,0,0,0-.85-2.65l-2.93-7.84H561.33l-2.93,7.84a25.4,25.4,0,0,0-.85,2.65h-1.13c.42-.88.81-1.76,1.13-2.65l7.88-21a26.08,26.08,0,0,0,.92-2.65h1.27a26.08,26.08,0,0,0,.92,2.65Zm-4.1-8.58L567,73.41l-5.37,14.24Z"/><path class="cls-1" d="M596.07,98.14a23.57,23.57,0,0,0,2.65-.1V99a21.44,21.44,0,0,0-2.65-.11H585a22.49,22.49,0,0,0-2.72.11,21.36,21.36,0,0,0,.11-2.65V75.28a21.36,21.36,0,0,0-.11-2.65h1a23.48,23.48,0,0,0-.1,2.65V98.14Z"/></svg>